<svg xmlns="http://www.w3.org/2000/svg" viewBox="0 0 32 32" fill="none">
  <rect width="32" height="32" rx="6" fill="#2B1C48"/>
  <path d="M16 4L18 8H14L16 4Z" fill="#FF6B6B"/>
  <path d="M8 16L12 18V14L8 16Z" fill="#4ECDC4"/>
  <path d="M24 16L20 18V14L24 16Z" fill="#4ECDC4"/>
  <path d="M16 28L18 24H14L16 28Z" fill="#FF6B6B"/>
  <circle cx="16" cy="16" r="6" fill="#FFE66D"/>
  <circle cx="16" cy="16" r="3" fill="#FF6B6B"/>
  <path d="M16 10C12.686 10 10 12.686 10 16C10 19.314 12.686 22 16 22C19.314 22 22 19.314 22 16C22 12.686 19.314 10 16 10ZM16 20C13.791 20 12 18.209 12 16C12 13.791 13.791 12 16 12C18.209 12 20 13.791 20 16C20 18.209 18.209 20 16 20Z" fill="#2B1C48"/>
</svg> 